<svg xmlns="http://www.w3.org/2000/svg" viewBox="0 0 1040 236" role="img" aria-labelledby="title">
  <title id="title">Aspelin Reitan</title>
  <path fill="currentColor" d="M683.14 81.6H557.02V61.2h126.12V40.8H557.02V20.4h126.12V0H535.3v102h147.84V81.6ZM0 0v102h21.72V61.2h104.41V102h21.72V0H0Zm126.12 40.8H21.72V20.4h104.41v20.4ZM326.27 102V40.8H200.14V20.4h126.13V0H178.43v61.2h126.13v20.4H178.43V102h147.84Zm482.99 0V81.6h-73.82V0h-21.72v102h95.54Zm82.9-102v102h21.72V20.4h104.41V102h21.72V0H892.17Zm-30.59 0h-21.72v102h21.72V0ZM356.86 0v102h21.72V61.2h126.13V0H356.87Zm126.13 40.8H378.58V20.4h104.41v20.4ZM326.27 215.6H200.15v-20.4h126.12v-20.4H200.15v-20.4h126.12V134H178.43v102h147.84v-20.4ZM535.29 134v102h21.72v-40.8h104.41V236h21.72V134H535.3Zm126.13 40.8H557.01v-20.4h104.41v20.4Zm52.31-40.8v102h21.72v-81.6h104.41V236h21.72V134H713.74Zm-335.15 0h-21.72v102h21.72V134Zm126.13 20.47-41.41-.03V236h-21.72v-81.57l-41.41-.03V134h104.54v20.47ZM148.65 236l-31.39-40.8h30.58V134H0v102h21.72v-40.8h69.73l31.39 40.8h25.81ZM21.72 154.4h104.41v20.4H21.72v-20.4Z"/>
</svg>
